<mxfile host="app.diagrams.net" modified="2021-11-12T07:28:16.853Z" agent="5.0 (Windows NT 10.0; Win64; x64) AppleWebKit/537.36 (KHTML, like Gecko) Chrome/95.0.4638.69 Safari/537.36" etag="zHXp3MnHtc3VwkiEUOfr" version="15.7.2" type="github">
  <diagram id="toIw099PtPl3Hnat31Ja" name="Page-1">
    <mxGraphModel dx="782" dy="432" grid="1" gridSize="10" guides="1" tooltips="1" connect="1" arrows="1" fold="1" page="1" pageScale="1" pageWidth="850" pageHeight="1100" math="0" shadow="0">
      <root>
        <mxCell id="0" />
        <mxCell id="1" parent="0" />
        <mxCell id="PIF15bUk4evdqEmm_p8N-2" value="Chatbot Interface" style="verticalAlign=top;align=center;spacingTop=8;spacingLeft=2;spacingRight=12;shape=cube;size=10;direction=south;fontStyle=4;html=1;" vertex="1" parent="1">
          <mxGeometry x="100" y="120" width="140" height="80" as="geometry" />
        </mxCell>
        <mxCell id="PIF15bUk4evdqEmm_p8N-3" value="" style="line;strokeWidth=1;fillColor=none;align=left;verticalAlign=middle;spacingTop=-1;spacingLeft=3;spacingRight=3;rotatable=0;labelPosition=right;points=[];portConstraint=eastwest;" vertex="1" parent="1">
          <mxGeometry x="100" y="150" width="130" height="8" as="geometry" />
        </mxCell>
        <mxCell id="PIF15bUk4evdqEmm_p8N-4" value="&lt;font style=&quot;font-size: 9px&quot;&gt;Initializes Reports&lt;br&gt;Initializes Emergency Panel&amp;nbsp;&amp;nbsp;&lt;br&gt;Initializes Admin Panel&lt;br&gt;&lt;/font&gt;" style="text;html=1;strokeColor=none;fillColor=none;align=center;verticalAlign=middle;whiteSpace=wrap;rounded=0;" vertex="1" parent="1">
          <mxGeometry x="104" y="168" width="120" height="20" as="geometry" />
        </mxCell>
        <mxCell id="PIF15bUk4evdqEmm_p8N-5" value="" style="endArrow=none;html=1;rounded=0;fontSize=9;exitX=0;exitY=0;exitDx=35;exitDy=0;exitPerimeter=0;" edge="1" parent="1">
          <mxGeometry width="50" height="50" relative="1" as="geometry">
            <mxPoint x="240" y="158" as="sourcePoint" />
            <mxPoint x="440" y="158" as="targetPoint" />
          </mxGeometry>
        </mxCell>
        <mxCell id="PIF15bUk4evdqEmm_p8N-6" value="Reports" style="verticalAlign=top;align=center;spacingTop=8;spacingLeft=2;spacingRight=12;shape=cube;size=10;direction=south;fontStyle=4;html=1;" vertex="1" parent="1">
          <mxGeometry x="375" y="30" width="140" height="80" as="geometry" />
        </mxCell>
        <mxCell id="PIF15bUk4evdqEmm_p8N-7" value="" style="endArrow=none;html=1;rounded=0;fontSize=9;exitX=0;exitY=0;exitDx=35;exitDy=0;exitPerimeter=0;" edge="1" parent="1">
          <mxGeometry width="50" height="50" relative="1" as="geometry">
            <mxPoint x="440" y="110" as="sourcePoint" />
            <mxPoint x="440" y="160" as="targetPoint" />
          </mxGeometry>
        </mxCell>
        <mxCell id="PIF15bUk4evdqEmm_p8N-8" value="" style="line;strokeWidth=1;fillColor=none;align=left;verticalAlign=middle;spacingTop=-1;spacingLeft=3;spacingRight=3;rotatable=0;labelPosition=right;points=[];portConstraint=eastwest;" vertex="1" parent="1">
          <mxGeometry x="375" y="60" width="130" height="8" as="geometry" />
        </mxCell>
        <mxCell id="PIF15bUk4evdqEmm_p8N-9" value="&lt;font style=&quot;font-size: 9px&quot;&gt;Initializes Validation&lt;br&gt;Initializes fetchreport&lt;br&gt;Initializes Trends&amp;nbsp;&lt;br&gt;&lt;br&gt;&lt;/font&gt;" style="text;html=1;strokeColor=none;fillColor=none;align=center;verticalAlign=middle;whiteSpace=wrap;rounded=0;" vertex="1" parent="1">
          <mxGeometry x="390" y="83" width="110" height="20" as="geometry" />
        </mxCell>
        <mxCell id="PIF15bUk4evdqEmm_p8N-10" value="&lt;p style=&quot;margin: 0px ; margin-top: 6px ; text-align: center&quot;&gt;&lt;b&gt;fetchReport&lt;/b&gt;&lt;/p&gt;&lt;hr&gt;&lt;p style=&quot;margin: 0px ; margin-left: 8px&quot;&gt;+ getReport(): String&lt;br&gt;+ returnReport: String&lt;/p&gt;" style="align=left;overflow=fill;html=1;dropTarget=0;fontSize=9;" vertex="1" parent="1">
          <mxGeometry x="590" y="120" width="130" height="65" as="geometry" />
        </mxCell>
        <mxCell id="PIF15bUk4evdqEmm_p8N-11" value="" style="shape=component;jettyWidth=8;jettyHeight=4;fontSize=9;align=center;" vertex="1" parent="PIF15bUk4evdqEmm_p8N-10">
          <mxGeometry x="1" width="20" height="20" relative="1" as="geometry">
            <mxPoint x="-24" y="4" as="offset" />
          </mxGeometry>
        </mxCell>
        <mxCell id="PIF15bUk4evdqEmm_p8N-12" value="&lt;p style=&quot;margin: 0px ; margin-top: 6px ; text-align: center&quot;&gt;&lt;b&gt;validation&lt;/b&gt;&lt;/p&gt;&lt;hr&gt;&lt;p style=&quot;margin: 0px ; margin-left: 8px&quot;&gt;+ getUser(): String&lt;br&gt;&lt;/p&gt;" style="align=left;overflow=fill;html=1;dropTarget=0;fontSize=9;" vertex="1" parent="1">
          <mxGeometry x="590" y="31.5" width="130" height="48.5" as="geometry" />
        </mxCell>
        <mxCell id="PIF15bUk4evdqEmm_p8N-13" value="" style="shape=component;jettyWidth=8;jettyHeight=4;fontSize=9;align=center;" vertex="1" parent="PIF15bUk4evdqEmm_p8N-12">
          <mxGeometry x="1" width="20" height="20" relative="1" as="geometry">
            <mxPoint x="-24" y="4" as="offset" />
          </mxGeometry>
        </mxCell>
        <mxCell id="PIF15bUk4evdqEmm_p8N-14" value="" style="endArrow=none;html=1;rounded=0;fontSize=9;exitX=0.525;exitY=-0.002;exitDx=0;exitDy=0;exitPerimeter=0;" edge="1" parent="1">
          <mxGeometry width="50" height="50" relative="1" as="geometry">
            <mxPoint x="514.28" y="72" as="sourcePoint" />
            <mxPoint x="560" y="68" as="targetPoint" />
          </mxGeometry>
        </mxCell>
        <mxCell id="PIF15bUk4evdqEmm_p8N-15" value="" style="endArrow=none;html=1;rounded=0;fontSize=9;exitX=0.072;exitY=0.01;exitDx=0;exitDy=0;exitPerimeter=0;entryX=0;entryY=0.25;entryDx=0;entryDy=0;" edge="1" parent="1" target="PIF15bUk4evdqEmm_p8N-12">
          <mxGeometry width="50" height="50" relative="1" as="geometry">
            <mxPoint x="559.9999999999999" y="67.99999999999997" as="sourcePoint" />
            <mxPoint x="560.64" y="25.225" as="targetPoint" />
          </mxGeometry>
        </mxCell>
        <mxCell id="PIF15bUk4evdqEmm_p8N-16" value="" style="endArrow=none;html=1;rounded=0;fontSize=9;entryX=0;entryY=0;entryDx=0;entryDy=0;" edge="1" parent="1">
          <mxGeometry width="50" height="50" relative="1" as="geometry">
            <mxPoint x="560" y="67" as="sourcePoint" />
            <mxPoint x="590" y="127" as="targetPoint" />
          </mxGeometry>
        </mxCell>
      </root>
    </mxGraphModel>
  </diagram>
</mxfile>
